<?xml version="1.0" encoding="UTF-8"?>
<!-- Generator: Adobe Illustrator 16.0.0, SVG Export Plug-In . SVG Version: 6.00 Build 0)  -->
<!DOCTYPE svg PUBLIC "-//W3C//DTD SVG 1.1//EN" "http://www.w3.org/Graphics/SVG/1.1/DTD/svg11.dtd">
<svg version="1.1" id="Layer_1" xmlns="http://www.w3.org/2000/svg" xmlns:xlink="http://www.w3.org/1999/xlink" x="0px" y="0px" width="334.554px" height="539.359px" viewBox="0 0 334.554 539.359" enable-background="new 0 0 334.554 539.359" xml:space="preserve">
<g>
	<path fill="none" d="M253.919,85.405c-16.969-7.176-30.019-9.84-36.397-9.601l-0.885,178.058l37.681-0.064   c32.967-0.057,51.291-29.492,51.469-73.851C305.984,129.883,286.619,99.839,253.919,85.405z"/>
	<path fill="#EEEFF7" d="M321.611,348.809c-4.172-37.767-12.754-63.688-28.347-72.978l0.007-1.793   c21.059-14.721,36.072-46.674,36.25-94.42c0.102-27.871-4.697-54.433-13.768-74.783c-11.92-27.303-30.601-47.144-63.969-64.991   C226.82,26.492,173.449,0,173.449,0l-44.893,23.086v236.606l-1.289-0.038c-8.189-18.743-16.023-35.394-23.208-50.104L33.278,72.296   L5.119,86.816l83.348,169.159L0,432.57l25.849,15.938l86.374-154.585l16.333,32.749v185.092l45,27.598l41.79-25.073l1.056-212.531   l34.99-3.918c28.756-1.36,36.498,14.586,46.451,72.033l12.912,87.17l23.799-14.279L321.611,348.809z M207.556,505.474   l-33.301,19.949l-35.699-22.076V29.674l35.613-18.738l33.387,18.738V505.474z M254.318,253.798l-37.681,0.064l0.885-178.058   c6.381-0.239,19.431,2.425,36.397,9.601c32.699,14.434,52.063,44.478,51.865,94.542   C305.609,224.306,287.285,253.741,254.318,253.798z"/>
</g>
<line fill="none" stroke="#EEEFF7" stroke-width="2" stroke-miterlimit="10" x1="174.056" y1="22.423" x2="174.056" y2="516.423"/>
</svg>